<?xml version="1.0" encoding="utf-8"?>

<!-- Uploaded to: SVG Repo, www.svgrepo.com, Generator: SVG Repo Mixer Tools -->
<svg width="800px" height="800px" viewBox="0 0 18.828 18.828" xmlns="http://www.w3.org/2000/svg">
  <g id="syringe-left-2" transform="translate(-2.586 -2.586)">
    <path id="secondary" fill="#2ca9bc"
      d="M6.56,10.81l6.37,6.36,4.24-4.24L10.81,6.56a1,1,0,0,0-1.42,0L6.56,9.39a1,1,0,0,0,0,1.42Z" />
    <path id="primary"
      d="M17.09,12.84,10.81,6.56a1,1,0,0,0-1.42,0L6.56,9.39a1,1,0,0,0,0,1.42l6.27,6.26" fill="none"
      stroke="#000000" stroke-linecap="round" stroke-linejoin="round" stroke-width="2" />
    <path id="primary-2" data-name="primary"
      d="M20,17.17,17.17,20m1.42-1.41-3.54-3.54m2.83-2.83-5.66,5.66M4,4,7.92,7.92" fill="none"
      stroke="#000000" stroke-linecap="round" stroke-linejoin="round" stroke-width="2" />
  </g>
</svg>